<?xml version="1.0" encoding="utf-8"?>
<!-- Generator: Adobe Illustrator 23.0.1, SVG Export Plug-In . SVG Version: 6.00 Build 0)  -->
<svg version="1.1" id="Layer_1" xmlns="http://www.w3.org/2000/svg" xmlns:xlink="http://www.w3.org/1999/xlink" x="0px" y="0px"
	 viewBox="0 0 500 376.97" style="enable-background:new 0 0 500 376.97;" xml:space="preserve">
<style type="text/css">
	.st0{fill:#F47D20;}
	.st1{fill:#FF7D68;}
</style>
<path class="st0" d="M0.91,312.08c-0.65-28.8-0.65-250.66,0-278.8V312.08z"/>
<path class="st1" d="M501.25,47.77C501.9,18.32,482.27,0,454.78,0H48.36C24.33,0,3.79,17.38,0.91,42.89
	C0.85,43.44,0.79,44,0.75,44.57c0,0,0,0,0,0.01c-0.09,1.05-0.15,2.11-0.17,3.19c-0.65,28.15-0.65,250.01,0,278.81
	c0.65,28.79,20.29,50.39,47.78,50.39h406.42c25.53,0,47.12-22.9,46.48-47.12C500.63,305.64,500.59,77.23,501.25,47.77z
	 M454.78,326.58H48.36V146.6l124.35,99.48c0,0,35.99,35.34,78.86,35.34s78.86-36,78.86-36l124.35-98.82V326.58z M454.78,85.08
	l-22.25,18.98l-35.34,27.49l-75.27,59.55l-15.7,13.09c0,0-29.45,28.15-54.65,29.45c-25.2,1.31-55.3-28.79-55.3-28.79l-16.37-13.09
	l-75.26-61.52l-34.69-26.18L48.36,86.39V47.77h406.42L454.78,85.08L454.78,85.08z"/>
</svg>
