<?xml version="1.0" encoding="utf-8"?>
<!-- Generator: Adobe Illustrator 23.0.1, SVG Export Plug-In . SVG Version: 6.00 Build 0)  -->
<svg version="1.1" id="Layer_1" xmlns="http://www.w3.org/2000/svg" xmlns:xlink="http://www.w3.org/1999/xlink" x="0px" y="0px"
	 viewBox="0 0 2500 2500" style="enable-background:new 0 0 2500 2500;" xml:space="preserve">
<style type="text/css">
	.st0{fill:#FF7D68;}
</style>
<path class="st0" d="M2288.44,1801.17c-77.11-62.08-159.52-117.79-240.63-174.72c-161.77-113.62-309.75-122.45-430.45,60.35
	c-67.79,102.63-162.69,107.12-261.92,62.11c-273.55-124.05-484.78-315.14-608.5-593.18c-54.74-123.01-54.02-233.29,74.04-320.3
	c67.8-46,136.11-100.44,130.65-200.99C944.5,503.34,626.21,65.27,500.52,19.03C448.51-0.1,396.72,1.14,343.81,18.92
	C49.08,118.04-72.99,360.42,43.91,647.42c348.78,856.24,962.56,1452.32,1807.47,1816.13c48.18,20.72,101.69,29,128.78,36.43
	c192.35,1.94,417.7-183.4,482.77-367.32C2525.6,1955.72,2393.18,1885.48,2288.44,1801.17z"/>
</svg>
